<?xml version="1.0" encoding="iso-8859-1"?>
<!-- Uploaded to: SVG Repo, www.svgrepo.com, Generator: SVG Repo Mixer Tools -->
<svg height="800px" width="800px" version="1.1" id="Layer_1" xmlns="http://www.w3.org/2000/svg" xmlns:xlink="http://www.w3.org/1999/xlink" 
	 viewBox="0 0 496.159 496.159" xml:space="preserve">
<path style="fill:#DEFCF8;" d="M248.082,0.004C111.07,0.004,0,111.063,0,248.086c0,137.001,111.07,248.07,248.082,248.07
	c137.006,0,248.076-111.069,248.076-248.07C496.158,111.063,385.088,0.004,248.082,0.004z"/>
<path style="fill:#E9C29C;" d="M495.595,231.516C234.639,308.221,63.448,261.91,0.239,237.532
	c-0.146,3.501-0.238,7.017-0.238,10.554c0,137.001,111.07,248.07,248.082,248.07c137.006,0,248.076-111.069,248.076-248.07
	C496.158,242.516,495.956,236.995,495.595,231.516z"/>
<g>
	<path style="fill:#DBB595;" d="M268.013,247.068c-17.239-3.569-35.934-11.015-90.464-21.849L91.41,55.74
		c-24.078,19.635-44.393,43.7-59.715,70.954c26.904,41.397,64.686,99.527,82.474,126.875c4.465,6.864,13.924,30.467,20.585,38.46
		c5.417,6.5,45.542,27.191,68.835,29.358l33.005-28.274l22.752-2.167c8.667,0.542,27.355,2.798,27.355,2.798l7.042-31.96
		C283.722,255.194,280.869,249.73,268.013,247.068z"/>
	<path style="fill:#DBB595;" d="M296.492,311.819c-19.859-8.79-48.925-9.311-48.925-9.311l-24.346-17.348l-25.553,34.944
		c0,0,24.394,3.738,38.206,9.629c7.063,2.989,22.957,4.596,39.596,4.96c15.984,0.343,30.538,4.78,33.809,0.809
		C318.247,324.612,298.823,312.853,296.492,311.819z"/>
	<path style="fill:#DBB595;" d="M381.047,283.452l-43.681-12.204l-57.978-17.679c-7.995,1.176-3.987,21.795-2.798,29.674
		c1.192,7.89,8.214,10.773,8.214,10.773l48.873,2.799l51.894,6.143c7.992-1.183,13.794-1.263,16.241-8.4
		C405.062,285.077,390.617,283.723,381.047,283.452z"/>
</g>
</svg>