<?xml version="1.0" encoding="iso-8859-1"?>
<!-- Uploaded to: SVG Repo, www.svgrepo.com, Generator: SVG Repo Mixer Tools -->
<svg height="800px" width="800px" version="1.1" id="Layer_1" xmlns="http://www.w3.org/2000/svg" xmlns:xlink="http://www.w3.org/1999/xlink" 
	 viewBox="0 0 496.158 496.158" xml:space="preserve">
<path style="fill:#4ABC96;" d="M248.082,0.003C111.07,0.003,0,111.063,0,248.085c0,137.001,111.07,248.07,248.082,248.07
	c137.006,0,248.076-111.069,248.076-248.07C496.158,111.062,385.088,0.003,248.082,0.003z"/>
<path style="fill:#494949;" d="M248.387,297.916c-83.656,0-151.473,22.107-151.473,58.595c0,36.489,67.816,41.897,151.473,41.897
	c83.654,0,151.473-5.408,151.473-41.897C399.859,307.709,332.041,297.916,248.387,297.916z"/>
<path style="fill:#5F6060;" d="M236.348,312.2c-63.117-11.048-121.383,20.551-126.201,48.081
	C105.328,387.81,299.463,323.248,236.348,312.2z"/>
<path style="fill:#535454;" d="M256.101,208.488c-70.938,0-128.443,16.49-128.443,51.224c0,34.732,57.506,44.434,128.443,44.434
	c70.936,0,128.442,0.797,128.442-33.935C384.544,235.477,327.037,208.488,256.101,208.488z"/>
<path style="fill:#5F6060;" d="M245.892,222.085c-53.521-10.517-102.929,19.562-107.015,45.767
	C134.793,294.058,299.412,232.601,245.892,222.085z"/>
<path style="fill:#494949;" d="M239.504,136.367c-54.395,0-98.49,7.503-98.49,37.849s44.096,45.724,98.49,45.724
	c54.396,0,98.491-4.498,98.491-34.843C337.995,142.718,293.899,136.367,239.504,136.367z"/>
<path style="fill:#5F6060;" d="M231.676,148.246c-41.041-9.188-78.925,17.09-82.059,39.985
	C146.485,211.126,272.716,157.433,231.676,148.246z"/>
<path style="fill:#565656;" d="M260.506,85.134c-36.996,0-66.987,6.586-66.987,33.144c0,20.639,29.991,23.698,66.987,23.698
	c36.998,0,66.99-10.118,66.99-30.757C327.496,90.579,297.504,85.134,260.506,85.134z"/>
<path style="fill:#5F6060;" d="M255.183,93.213c-27.914-6.25-53.681,11.625-55.813,27.196
	C197.24,135.981,283.096,99.462,255.183,93.213z"/>
</svg>